# xmcd
#
# Track frame offsets:
#	150
#	16321
#	27355
#	43836
#	59618
#	73296
#	90491
#	104472
#	115677
#	128930
#	137993
#	155966
#	171645
#	186533
#	195504
#	207576
#	225577
#	238446
#
# Disc length: 3368 seconds
#
# Revision: 0
# Processed by: cddbd v1.5.2PL0 Copyright (c) Steve Scherf et al.
# Submitted via: EZCDAudioConverter 5.1.1.1
#
DISCID=1e0d2612
DTITLE=Roberto Murolo - 4
DYEAR=1900
DGENRE=
TTITLE0=Napule ca se ne va
TTITLE1=Napule canta
TTITLE2='Nu quart'e luna
TTITLE3=Nun me sceta'
TTITLE4=Nuttata 'e sentimento
TTITLE5='O cunto 'e Mariarosa
TTITLE6=Oilì, oilà
TTITLE7=Il paparacianno
TTITLE8=Piscatore 'e Pusilleco
TTITLE9=Pusilleco addiruso
TTITLE10=Raziella
TTITLE11=Reginella
TTITLE12=Resta cu mme
TTITLE13=Ritornello delle lavandare del Vomero
TTITLE14=S'io fosse
TTITLE15=Santa Lucia
TTITLE16=Santa Lucia luntana
TTITLE17=Scalinatella
EXTD=
EXTT0=
EXTT1=
EXTT2=
EXTT3=
EXTT4=
EXTT5=
EXTT6=
EXTT7=
EXTT8=
EXTT9=
EXTT10=
EXTT11=
EXTT12=
EXTT13=
EXTT14=
EXTT15=
EXTT16=
EXTT17=
PLAYORDER=
